<?xml version="1.0" encoding="UTF-8" standalone="no"?>
<svg
   id="e87ddc62-7528-42a5-8b37-f74ed0351019"
   data-name="Layer 1"
   width="1131"
   height="812.20611"
   viewBox="0 0 1131 812.20611"
   version="1.1"
   sodipodi:docname="undraw_software_engineer_lvl5.svg"
   inkscape:version="1.1.2 (b8e25be833, 2022-02-05)"
   xmlns:inkscape="http://www.inkscape.org/namespaces/inkscape"
   xmlns:sodipodi="http://sodipodi.sourceforge.net/DTD/sodipodi-0.dtd"
   xmlns="http://www.w3.org/2000/svg"
   xmlns:svg="http://www.w3.org/2000/svg"
   xmlns:rdf="http://www.w3.org/1999/02/22-rdf-syntax-ns#"
   xmlns:cc="http://creativecommons.org/ns#"
   xmlns:dc="http://purl.org/dc/elements/1.1/">
  <defs
     id="defs1314" />
  <sodipodi:namedview
     id="namedview1312"
     pagecolor="#505050"
     bordercolor="#eeeeee"
     borderopacity="1"
     inkscape:pageshadow="0"
     inkscape:pageopacity="0"
     inkscape:pagecheckerboard="0"
     showgrid="false"
     inkscape:zoom="0.83229376"
     inkscape:cx="711.88807"
     inkscape:cy="407.90886"
     inkscape:window-width="1440"
     inkscape:window-height="837"
     inkscape:window-x="-8"
     inkscape:window-y="-8"
     inkscape:window-maximized="1"
     inkscape:current-layer="e87ddc62-7528-42a5-8b37-f74ed0351019" />
  <title
     id="title1175">software engineer</title>
  <rect
     x="689.32824"
     y="51.26718"
     width="80.80153"
     height="30.0916"
     fill="#ffc107"
     opacity="0.3"
     id="rect1177" />
  <rect
     x="823.62595"
     width="80.80153"
     height="30.0916"
     fill="#ffc107"
     opacity="0.3"
     id="rect1179" />
  <rect
     x="829.19847"
     y="93.06107"
     width="80.80153"
     height="30.0916"
     fill="#ffc107"
     opacity="0.3"
     id="rect1181" />
  <rect
     x="570.63359"
     y="127.61069"
     width="80.80153"
     height="30.0916"
     fill="#ffc107"
     opacity="0.3"
     id="rect1183" />
  <rect
     x="545"
     y="251.32061"
     width="80.80153"
     height="30.0916"
     fill="#ffc107"
     opacity="0.3"
     id="rect1185" />
  <rect
     x="667.03817"
     y="248.53435"
     width="80.80153"
     height="30.0916"
     fill="#ffc107"
     opacity="0.3"
     id="rect1187" />
  <polyline
     points="823.626 14.856 770.13 65.616 829.198 108.107"
     fill="none"
     stroke="#3f3d56"
     stroke-miterlimit="10"
     id="polyline1189" />
  <line
     x1="689.32824"
     y1="65.61641"
     x2="611.03435"
     y2="127.61069"
     fill="none"
     stroke="#3f3d56"
     stroke-miterlimit="10"
     id="line1191" />
  <polyline
     points="585.401 251.297 611.034 157.702 707.439 248.534"
     fill="none"
     stroke="#3f3d56"
     stroke-miterlimit="10"
     id="polyline1193" />
  <rect
     x="144.32824"
     y="82.26718"
     width="80.80153"
     height="30.0916"
     fill="#ffc107"
     opacity="0.3"
     id="rect1195" />
  <rect
     x="278.62595"
     y="31"
     width="80.80153"
     height="30.0916"
     fill="#ffc107"
     opacity="0.3"
     id="rect1197" />
  <rect
     x="284.19847"
     y="124.06107"
     width="80.80153"
     height="30.0916"
     fill="#ffc107"
     opacity="0.3"
     id="rect1199" />
  <rect
     x="25.63359"
     y="158.61069"
     width="80.80153"
     height="30.0916"
     fill="#ffc107"
     opacity="0.3"
     id="rect1201" />
  <rect
     y="282.32061"
     width="80.80153"
     height="30.0916"
     fill="#ffc107"
     opacity="0.3"
     id="rect1203" />
  <rect
     x="122.03817"
     y="279.53435"
     width="80.80153"
     height="30.0916"
     fill="#ffc107"
     opacity="0.3"
     id="rect1205" />
  <polyline
     points="278.626 45.856 225.13 96.616 284.198 139.107"
     fill="none"
     stroke="#3f3d56"
     stroke-miterlimit="10"
     id="polyline1207" />
  <line
     x1="144.32824"
     y1="96.61641"
     x2="66.03435"
     y2="158.61069"
     fill="none"
     stroke="#3f3d56"
     stroke-miterlimit="10"
     id="line1209" />
  <polyline
     points="40.401 282.297 66.034 188.702 162.439 279.534"
     fill="none"
     stroke="#3f3d56"
     stroke-miterlimit="10"
     id="polyline1211" />
  <line
     x1="365"
     y1="139.10687"
     x2="456.63359"
     y2="139.10687"
     fill="none"
     stroke="#3f3d56"
     stroke-miterlimit="10"
     id="line1213" />
  <rect
     x="415.5"
     y="123.70611"
     width="95"
     height="30"
     fill="#ffc107"
     id="rect1215" />
  <line
     x1="510.62322"
     y1="138.70611"
     x2="570.63359"
     y2="138.70611"
     fill="none"
     stroke="#3f3d56"
     stroke-miterlimit="10"
     id="line1217" />
  <line
     x1="415.04486"
     y1="138.70611"
     x2="359.42748"
     y2="45.8564"
     fill="none"
     stroke="#3f3d56"
     stroke-miterlimit="10"
     id="line1219" />
  <ellipse
     cx="691"
     cy="714.20611"
     rx="440"
     ry="98"
     fill="#f2f2f2"
     id="ellipse1221" />
  <polygon
     points="894.984 391.611 852.078 606.582 842.79 606.582 841.768 604.994 838.809 600.39 875.964 399.572 881.604 397.21 894.984 391.611"
     fill="#47465a"
     id="polygon1223" />
  <polygon
     points="881.604 397.21 841.768 604.994 838.809 600.39 875.964 399.572 881.604 397.21"
     opacity="0.1"
     id="polygon1225" />
  <polygon
     points="959.564 684.432 948.533 687.988 945.852 688.855 942.313 680.893 881.604 403.96 887.916 402.545 901.177 399.572 959.564 684.432"
     fill="#47465a"
     id="polygon1227" />
  <polygon
     points="948.533 687.988 945.852 688.855 942.313 680.893 881.604 403.96 887.916 402.545 948.533 687.988"
     opacity="0.1"
     id="polygon1229" />
  <polygon
     points="433.636 391.611 423.905 670.277 412.753 672.754 411.962 672.931 408.865 667.181 415.058 394.264 421.016 393.415 433.636 391.611"
     fill="#47465a"
     id="polygon1231" />
  <polygon
     points="421.016 393.415 412.753 672.754 411.962 672.931 408.865 667.181 415.058 394.264 421.016 393.415"
     opacity="0.1"
     id="polygon1233" />
  <polygon
     points="491.581 768.917 480.045 770.907 478.753 771.128 475.215 763.609 419.039 399.572 420.658 399.081 429.213 396.476 491.581 768.917"
     fill="#47465a"
     id="polygon1235" />
  <polygon
     points="480.045 770.907 478.753 771.128 475.215 763.609 419.039 399.572 420.658 399.081 480.045 770.907"
     opacity="0.1"
     id="polygon1237" />
  <path
     d="M770.24611,412.94872l42.95118,54.88207a13.9279,13.9279,0,0,0,12.58842,5.24947l176.3179-20.64984a13.92791,13.92791,0,0,0,12.30779-13.83336v-40.6875Z"
     transform="translate(-34.5 -43.89695)"
     fill="#7a799c"
     id="path1239" />
  <path
     d="M880.3875,377.89835h11.94287a0,0,0,0,1,0,0v17.23649a4.4376,4.4376,0,0,1-4.4376,4.4376H884.8251a4.4376,4.4376,0,0,1-4.4376-4.4376V377.89835A0,0,0,0,1,880.3875,377.89835Z"
     fill="#47465a"
     id="path1241" />
  <path
     d="M453.539,447.89267l42.95118,54.88206a13.92791,13.92791,0,0,0,12.58842,5.24948l176.3179-20.64984A13.92793,13.92793,0,0,0,697.70425,473.541V432.8535Z"
     transform="translate(-34.5 -43.89695)"
     fill="#7a799c"
     id="path1243" />
  <path
     d="M563.68035,412.84229h11.94287a0,0,0,0,1,0,0v17.23649a4.4376,4.4376,0,0,1-4.4376,4.4376H568.118a4.4376,4.4376,0,0,1-4.4376-4.4376V412.84229A0,0,0,0,1,563.68035,412.84229Z"
     fill="#47465a"
     id="path1245" />
  <path
     d="M502.88475,475.68812l524.45934-61.09027a7.71254,7.71254,0,0,0,2.57751-14.54866l-93.81678-47.18187a108.58678,108.58678,0,0,0-59.80247-11.01708L410.3605,389.3598a8.91843,8.91843,0,0,0-5.45875,15.09495l54.25911,55.66844A52.67339,52.67339,0,0,0,502.88475,475.68812Z"
     transform="translate(-34.5 -43.89695)"
     fill="#47465a"
     id="path1247" />
  <path
     d="M1085.04368,406.31845l-5.61-3.101s-6.05628,4.45811-10.99,23.23965,9.22074.20375,9.22074.20375l6.1926-12.82752Z"
     transform="translate(-34.5 -43.89695)"
     fill="#47465a"
     id="path1249" />
  <path
     d="M1025.02728,578.37955s-5.75027,26.982-8.40424,34.50162c-1.30042,3.68018-7.58157,7.04629-14.54371,9.62064a97.37869,97.37869,0,0,1-19.07325,4.9762c-7.51958.88466-103.94718-14.15451-150.834-24.32806-31.58664-6.85167-35.66943-14.71185-34.97051-19.1086a6.37978,6.37978,0,0,1,1.79588-3.45015s46.44448-31.40532,62.81063-46.44449,48.65613-3.0963,84.0424,3.0963S1025.02728,578.37955,1025.02728,578.37955Z"
     transform="translate(-34.5 -43.89695)"
     fill="#47465a"
     id="path1251" />
  <path
     d="M1079.43367,403.2175s21.6741,14.15451-51.31009,43.34818c0,0-39.669,22.36656-34.50509,114.50318a25.26971,25.26971,0,0,0,3.673,11.702c7.5302,12.3852,23.66634,43.73743-3.22723,47.62992V627.478s48.65613-24.32806,53.96407-45.1175,23.00107-136.23715,31.84764-146.853S1094.47284,408.08311,1079.43367,403.2175Z"
     transform="translate(-34.5 -43.89695)"
     fill="#47465a"
     id="path1253" />
  <path
     d="M1002.07933,622.50181a97.37869,97.37869,0,0,1-19.07325,4.9762c-7.51958.88466-103.94718-14.15451-150.834-24.32806-31.58664-6.85167-35.66943-14.71185-34.97051-19.1086,20.76287,7.09937,88.18264,29.63158,112.378,31.49379,28.75135,2.21164,83.67966,8.36,87.842,4.18C999.02277,618.10507,1000.66379,619.80359,1002.07933,622.50181Z"
     transform="translate(-34.5 -43.89695)"
     opacity="0.1"
     id="path1255" />
  <path
     d="M749.45667,806.621l42.0212-191.97054s7.51959-20.3471,24.77039-19.46245L832.17209,603.15s-26.53971-6.1926-32.29,14.1545S757.41858,806.621,757.41858,806.621Z"
     transform="translate(-34.5 -43.89695)"
     fill="#47465a"
     id="path1257" />
  <polygon
     points="815.808 675.143 832.616 557.926 840.136 557.926 822.885 675.143 815.808 675.143"
     fill="#47465a"
     id="polygon1259" />
  <path
     d="M1011.3151,833.60305l-15.92383-183.124s0-15.4815,7.96192-23.00108,33.66494-28.97011,33.66494-28.97011,6.58694-1.55055,11.89488,13.48861,42.0212,165.43083,42.0212,165.43083l-7.07725,3.0963L1038.29713,607.1309l-31.40532,29.636s-6.19259,11.05821-3.0963,21.23176,14.59684,175.60438,14.59684,175.60438Z"
     transform="translate(-34.5 -43.89695)"
     fill="#47465a"
     id="path1261" />
  <polygon
     points="927.717 579.158 967.526 590.658 976.373 582.254 953.372 579.158 927.717 579.158"
     fill="#47465a"
     id="polygon1263" />
  <path
     d="M608.31275,300.20117l6.45492,96.82373,141.10276-13.71218-5.61479-94.64939a9.51952,9.51952,0,0,0-10.30071-8.9223L617.0133,290.08191A9.51953,9.51953,0,0,0,608.31275,300.20117Z"
     transform="translate(-34.5 -43.89695)"
     fill="#7a799c"
     id="path1265" />
  <polygon
     points="768.7 367.282 628.039 382.627 622.731 383.206 581.595 356.667 581.595 350.916 721.37 338.328 768.7 367.282"
     fill="#7a799c"
     id="polygon1267" />
  <polygon
     points="628.039 382.627 622.731 383.206 581.595 356.667 581.595 351.518 628.039 382.627"
     opacity="0.1"
     id="polygon1269" />
  <polygon
     points="583.364 255.373 588.23 341.627 712.082 330.127 707.658 246.084 583.364 255.373"
     fill="#9493b6"
     id="polygon1271" />
  <polygon
     points="657.233 365.513 672.272 375.687 717.832 371.263 702.35 361.532 657.233 365.513"
     opacity="0.1"
     id="polygon1273" />
  <polygon
     points="595.749 353.128 614.769 367.282 736.41 355.782 714.736 341.627 595.749 353.128"
     fill="#9493b6"
     id="polygon1275" />
  <rect
     x="811.60541"
     y="222.41991"
     width="89.792671"
     height="89.792671"
     fill="#ff6584"
     id="rect1277"
     style="display:none" />
  <rect
     x="811.60541"
     y="222.41991"
     width="89.792671"
     height="89.792671"
     opacity="0.1"
     id="rect1279"
     style="display:none" />
  <path
     d="M877.029,307.87069s12.66681,34.30595,0,40.63936,45.38941,0,45.38941,0l16.3613-13.1946s-36.94487-10.55568-31.667-34.83373S877.029,307.87069,877.029,307.87069Z"
     transform="translate(-34.5 -43.89695)"
     fill="#fbbebe"
     id="path1281" />
  <path
     d="M877.029,307.87069s12.66681,34.30595,0,40.63936,45.38941,0,45.38941,0l16.3613-13.1946s-36.94487-10.55568-31.667-34.83373S877.029,307.87069,877.029,307.87069Z"
     transform="translate(-34.5 -43.89695)"
     opacity="0.1"
     id="path1283" />
  <path
     d="M773.05563,651.98574s47.50054,67.02855,39.58378,85.501-3.69448,30.08368-19.528,36.41708-20.05578,17.94465-6.3334,17.41687,31.667-4.22227,34.30594-8.97232,8.97233-27.44476,17.94465-30.61147S864.89,736.43115,852.751,721.65321s-42.7254-69.21048-40.36292-74.71681S773.05563,651.98574,773.05563,651.98574Z"
     transform="translate(-34.5 -43.89695)"
     fill="#fbbebe"
     id="path1285" />
  <path
     d="M872.279,519.512s-98.16779,6.33341-123.50142,30.08368,22.16692,112.418,27.44476,113.47352,46.445-3.1667,44.86162-14.77794-29.55589-59.11179-29.55589-59.11179,36.41708-13.1946,56.47287-16.3613,42.22271-17.94465,42.22271-17.94465Z"
     transform="translate(-34.5 -43.89695)"
     fill="#9493b6"
     id="path1287" />
  <path
     d="M827.41736,504.73406s1.58335,58.584,16.3613,60.69514,0-44.86163,0-44.86163l-.52778-17.94465Z"
     transform="translate(-34.5 -43.89695)"
     fill="#fbbebe"
     id="path1289" />
  <path
     d="m 839.779,307.25205 c 0,0 -27.44476,-7.91676 -32.7226,13.19459 -5.27784,21.11135 -6.86119,93.94552 -6.86119,93.94552 l -9.50011,58.05622 c 0,0 17.41687,-5.27784 21.11135,-2.63892 l 22.16692,-27.97254 z"
     fill="#ffc107"
     id="path1291" />
  <path
     d="m 839.779,307.25205 c 0,0 -27.44476,-7.91676 -32.7226,13.19459 -5.27784,21.11135 -6.86119,93.94552 -6.86119,93.94552 l -9.50011,58.05622 c 0,0 17.41687,-5.27784 21.11135,-2.63892 l 22.16692,-27.97254 z"
     opacity="0.1"
     id="path1293"
     style="display:inline" />
  <path
     d="M909.77932,663.22549s18.44475,36.2608,29.52821,35.733,21.63914-7.389,26.917,14.25016-1.05556,15.83352,5.27784,28.50033,7.389,34.83373-4.75,40.11157-23.22249,5.80562-23.75027,0,10.55567-5.80562-2.11114-26.38919-39.58378-58.05622-50.66724-61.75071S909.77932,663.22549,909.77932,663.22549Z"
     transform="translate(-34.5 -43.89695)"
     fill="#fbbebe"
     id="path1295" />
  <path
     d="m 914.75797,453.97592 c 0,0 35.81233,63.33406 12.43484,81.80649 -23.37749,18.47243 -93.01256,53.834 -93.01256,53.834 0,0 37.3045,26.917 39.29408,35.8893 1.98958,8.9723 -17.90617,33.25038 -24.86967,33.77816 -6.9635,0.52778 -27.35664,-24.27805 -49.24195,-30.61146 -21.88531,-6.33341 -35.31493,-51.72281 -11.44002,-68.6119 23.87491,-16.88909 46.25759,-44.86162 46.25759,-44.86162 L 827.2208,474.5652 Z"
     fill="#9493b6"
     id="path1297"
     style="stroke-width:0.970783" />
  <path
     d="M924.83989,286.664c0,22.44449-22.99133,40.99863-45.43582,40.99863a40.63935,40.63935,0,1,1,0-81.27871C901.84856,246.38388,924.83989,264.21946,924.83989,286.664Z"
     transform="translate(-34.5 -43.89695)"
     fill="#fbbebe"
     id="path1299" />
  <path
     d="m 889.69585,345.34334 c 0,0 36.41708,-15.83351 36.41708,-17.94465 0,-2.11114 21.11136,4.75006 25.86141,8.97233 4.75005,4.22227 7.389,3.69449 10.55568,12.139 3.16668,8.44451 -15.83352,87.08433 -15.83352,87.08433 0,0 10.55568,60.69514 16.3613,66.50076 5.80562,5.80562 -46.9728,14.25019 -46.9728,14.25019 0,0 -34.83373,6.33341 -40.63935,8.97233 -5.80562,2.63892 -16.3613,6.3334 -14.25016,0 2.11114,-6.3334 11.08346,-11.08346 -4.22228,-19.00022 0,0 29.0663,-10.56883 23.78846,-22.18007 -5.27784,-11.61124 -10.86495,-48.73647 -10.02789,-84.44541 0.85092,-36.29982 4.71187,-56.98751 4.71187,-56.98751 0,0 6.86123,5.80563 14.2502,2.63892 z"
     transform="translate(-34.5,-43.89695)"
     fill="#ffc107"
     id="path1301"
     sodipodi:nodetypes="cssscscsscsscc" />
  <path
     d="M901.3071,489.42833S860.14,507.68713,847.737,509.3773s-49.87557,11.19027-29.292,19.63481,51.72281-4.22227,51.72281-4.22227l43.80606-18.47243Z"
     transform="translate(-34.5 -43.89695)"
     fill="#fbbebe"
     id="path1303" />
  <path
     d="M945.62933,343.72433s15.20178-7.35331,19.424,18.5081,19.00022,107.66789,0,119.80692-62.80628,31.667-62.80628,31.667-25.8614-17.41686-13.72237-23.75027,41.16713-24.27806,45.3894-30.61146,8.48829-77.027,1.09932-88.63829S945.62933,343.72433,945.62933,343.72433Z"
     transform="translate(-34.5 -43.89695)"
     opacity="0.1"
     id="path1305" />
  <path
     d="M944.58537,337.42659s21.11135-1.05557,25.33362,24.80584,19.00022,107.66789,0,119.80692-62.80627,31.667-62.80627,31.667-25.86141-17.41686-13.72238-23.75027,41.16714-24.27806,45.38941-30.61146S935.613,387.03827,928.22407,375.427,944.58537,337.42659,944.58537,337.42659Z"
     transform="translate(-34.5 -43.89695)"
     fill="#ffc107"
     id="path1307" />
  <path
     d="m 869.39363,218.61184 c -6.47937,0.88179 -13.42907,3.252 -16.68936,8.92037 -1.59532,2.77365 -2.11107,6.02743 -3.34,8.98173 -3.39144,8.15262 -11.628,13.02111 -17.57449,19.54846 -7.7497,8.50671 -11.59829,21.32569 -7.02776,31.88657 1.76985,4.08952 4.64406,7.59294 6.82374,11.47953 16.65165,-3.47567 9.86613,18.53596 28.98123,-8.52135 -1.6003,-9.41159 0.006,-19.738 6.11766,-27.07224 4.75238,-5.74117 11.86348,-9.00177 19.315,-8.85635 7.4789,0.28902 14.26948,4.44611 17.9282,10.97538 1.4118,2.65764 3.42145,6.25954 6.28226,5.32575 0.53004,-0.2246 1.04717,-0.4785 1.549,-0.76054 3.19044,-1.45194 6.81442,1.41256 8.22125,4.62315 4.43733,10.12665 -3.73777,21.18131 -4.58276,32.20513 l -10.68814,17.48066 c -1.79441,-12.34986 41.88638,-31.67058 36.62744,-42.98793 -4.80791,-10.34671 -8.23607,-21.22604 -12.59072,-31.77153 -4.42322,-10.71155 -7.29082,-20.01739 -19.00212,-24.68049 -12.78194,-5.08939 -26.54035,-8.65575 -40.35043,-6.7763 z"
     transform="translate(-34.5,-43.89695)"
     fill="#ff6584"
     id="path1309"
     style="display:inline"
     sodipodi:nodetypes="ssssscccccccsccssss" />
  <metadata
     id="metadata1373">
    <rdf:RDF>
      <cc:Work
         rdf:about="">
        <dc:title>software engineer</dc:title>
      </cc:Work>
    </rdf:RDF>
  </metadata>
</svg>
